<svg xmlns="http://www.w3.org/2000/svg" width="21" height="20" viewBox="0 0 21 20" fill="none">
  <path
    d="M3.25 17.5H18.25M12.237 4.42643C12.237 4.42643 12.237 5.78861 13.5992 7.1508C14.9614 8.51299 16.3236 8.51299 16.3236 8.51299M6.84969 14.9901L9.71028 14.5814C10.1229 14.5225 10.5053 14.3313 10.8 14.0365L17.6858 7.1508C18.4381 6.39848 18.4381 5.17874 17.6858 4.42642L16.3236 3.06424C15.5713 2.31192 14.3515 2.31192 13.5992 3.06424L6.71347 9.94997C6.41873 10.2447 6.22754 10.6271 6.16859 11.0397L5.75994 13.9003C5.66913 14.536 6.214 15.0809 6.84969 14.9901Z"
    stroke="#334155" stroke-width="1.5" stroke-linecap="round" />
</svg>