<svg width="40" height="40" viewBox="0 0 40 40" fill="none" xmlns="http://www.w3.org/2000/svg">
<path fill-rule="evenodd" clip-rule="evenodd" d="M36 20C36 28.8366 28.8366 36 20 36C11.1634 36 4 28.8366 4 20C4 11.1634 11.1634 4 20 4C28.8366 4 36 11.1634 36 20ZM25.374 25.3739C24.9054 25.8425 24.1456 25.8425 23.677 25.3739L20 21.697L16.323 25.3739C15.8544 25.8426 15.0946 25.8426 14.626 25.3739C14.1574 24.9053 14.1574 24.1455 14.626 23.6769L18.303 19.9999L14.626 16.323C14.1574 15.8543 14.1574 15.0945 14.626 14.6259C15.0946 14.1573 15.8544 14.1573 16.3231 14.6259L20 18.3028L23.677 14.6259C24.1456 14.1573 24.9054 14.1573 25.374 14.6259C25.8426 15.0945 25.8426 15.8543 25.374 16.323L21.6971 19.9999L25.374 23.6769C25.8427 24.1455 25.8427 24.9053 25.374 25.3739Z" fill="#E92324"/>
</svg>
